<svg xmlns="http://www.w3.org/2000/svg" width="47.578" height="28.502" viewBox="0 0 47.578 28.502">
  <g id="Group_2" data-name="Group 2" transform="translate(57.899 -842.749)">
    <path id="Path_4" data-name="Path 4" d="M35.28,843l-7.049,12.149H21.1" transform="translate(-79)" fill="none" stroke="#f0f8ff" stroke-width="1"/>
    <path id="Path_7" data-name="Path 7" d="M35.28,855.149,28.231,843H21.1" transform="translate(-79 15.851)" fill="none" stroke="#f0f8ff" stroke-width="1"/>
    <g id="Polygon_1" data-name="Polygon 1" transform="translate(-49 844)" fill="none">
      <path d="M22.5,0,30,13,22.5,26H7.5L0,13,7.5,0Z" stroke="none"/>
      <path d="M 8.077566146850586 1 L 1.154489517211914 13 L 8.077566146850586 25 L 21.92243194580078 25 L 28.84551048278809 13 L 21.92243194580078 1 L 8.077566146850586 1 M 7.5 0 L 22.5 0 L 30 13 L 22.5 26 L 7.5 26 L 0 13 L 7.5 0 Z" stroke="none" fill="#f0f8ff"/>
    </g>
    <path id="Path_5" data-name="Path 5" d="M21.1,843l7.049,12.149h7.13" transform="translate(-45.601)" fill="none" stroke="#f0f8ff" stroke-width="1"/>
    <path id="Path_6" data-name="Path 6" d="M21.1,855.149,28.15,843h7.13" transform="translate(-45.601 15.851)" fill="none" stroke="#f0f8ff" stroke-width="1"/>
  </g>
</svg>
