<svg xmlns="http://www.w3.org/2000/svg" width="440.5" height="110.288" viewBox="0 0 440.5 110.288">
  <g id="Group_1" data-name="Group 1" transform="translate(-69.771 -600)">
    <g id="Group_1-2" data-name="Group 1" transform="translate(-754.774 69.042)">
      <rect id="Rectangle_4" data-name="Rectangle 4" width="31.194" height="31.194" transform="translate(868.659 553.016) rotate(45)" fill="rgba(255,255,255,0.8)" opacity="0.7"/>
      <path id="Rectangle_11" data-name="Rectangle 11" d="M0,0H31.194V31.194H4a4,4,0,0,1-4-4Z" transform="translate(846.602 575.073) rotate(45)" fill="rgba(255,255,255,0.9)" opacity="0.8"/>
      <rect id="Rectangle_7" data-name="Rectangle 7" width="31.194" height="31.194" transform="translate(912.774 553.016) rotate(45)" fill="rgba(255,255,255,0.8)" opacity="0.7"/>
      <rect id="Rectangle_9" data-name="Rectangle 9" width="31.194" height="31.194" transform="translate(890.716 575.073) rotate(45)" fill="rgba(255,255,255,0.9)" opacity="0.8"/>
      <path id="Rectangle_13" data-name="Rectangle 13" d="M0,0H31.194V27.194a4,4,0,0,1-4,4H0Z" transform="translate(912.774 597.131) rotate(45)" fill="#fff"/>
      <path id="Rectangle_14" data-name="Rectangle 14" d="M0,0H31.194V27.194a4,4,0,0,1-4,4H0Z" transform="translate(868.659 597.131) rotate(45)" fill="#fff"/>
      <path id="Rectangle_15" data-name="Rectangle 15" d="M0,0H31.194V27.194a4,4,0,0,1-4,4H0Z" transform="translate(956.889 597.131) rotate(45)" fill="#fff"/>
      <rect id="Rectangle_10" data-name="Rectangle 10" width="31.194" height="31.194" transform="translate(934.831 575.073) rotate(45)" fill="rgba(255,255,255,0.9)" opacity="0.8"/>
      <path id="Rectangle_12" data-name="Rectangle 12" d="M0,0H27.194a4,4,0,0,1,4,4V31.194H0Z" transform="translate(978.946 575.073) rotate(45)" fill="rgba(255,255,255,0.9)" opacity="0.8"/>
      <rect id="Rectangle_8" data-name="Rectangle 8" width="31.194" height="31.194" transform="translate(956.889 553.016) rotate(45)" fill="rgba(255,255,255,0.8)" opacity="0.7"/>
      <path id="Rectangle_5" data-name="Rectangle 5" d="M3,0H31.194V31.194H0V3A3,3,0,0,1,3,0Z" transform="translate(890.716 530.958) rotate(45)" fill="rgba(255,255,255,0.7)" opacity="0.5"/>
      <path id="Rectangle_6" data-name="Rectangle 6" d="M3,0H31.194V31.194H0V3A3,3,0,0,1,3,0Z" transform="translate(934.831 530.958) rotate(45)" fill="rgba(255,255,255,0.7)" opacity="0.5"/>
    </g>
    <path id="Path_1" data-name="Path 1" d="M30.8-49v18.76H15.4V-49H4.2V0H15.4V-19.46H30.8V0H42V-49ZM66.85.98A18.345,18.345,0,0,0,85.4-17.5,18.345,18.345,0,0,0,66.85-35.98,18.345,18.345,0,0,0,48.3-17.5,18.345,18.345,0,0,0,66.85.98Zm0-10.22A7.85,7.85,0,0,1,58.8-17.5a7.85,7.85,0,0,1,8.05-8.26A7.85,7.85,0,0,1,74.9-17.5,7.85,7.85,0,0,1,66.85-9.24Zm35-19.53V-35H91.35V0h10.5V-15.82c0-6.93,6.16-8.68,10.5-7.98V-35.7C107.94-35.7,103.25-33.46,101.85-28.77Zm20.65-9.31a6.364,6.364,0,0,0,6.3-6.3,6.364,6.364,0,0,0-6.3-6.3,6.364,6.364,0,0,0-6.3,6.3A6.364,6.364,0,0,0,122.5-38.08ZM117.25,0h10.5V-35h-10.5Zm31.22-9.8L161.7-28v-7H135.1v9.8h12.53L134.4-7V0h28V-9.8ZM183.4.98A18.345,18.345,0,0,0,201.95-17.5,18.345,18.345,0,0,0,183.4-35.98,18.345,18.345,0,0,0,164.85-17.5,18.345,18.345,0,0,0,183.4.98Zm0-10.22a7.85,7.85,0,0,1-8.05-8.26,7.85,7.85,0,0,1,8.05-8.26,7.85,7.85,0,0,1,8.05,8.26A7.85,7.85,0,0,1,183.4-9.24Zm45.01-26.74c-4.62,0-8.12,1.68-10.01,4.27V-35H207.9V0h10.5V-19.11c0-4.97,2.66-7.21,6.51-7.21,3.36,0,6.09,2.03,6.09,6.37V0h10.5V-21.49C241.5-30.94,235.48-35.98,228.41-35.98Z" transform="translate(268.771 688)" fill="#fff"/>
  </g>
</svg>
